<?xml version="1.0" encoding="utf-8"?>
<!-- Generator: Adobe Illustrator 23.0.1, SVG Export Plug-In . SVG Version: 6.00 Build 0)  -->
<svg version="1.1" id="Layer_1" xmlns="http://www.w3.org/2000/svg" xmlns:xlink="http://www.w3.org/1999/xlink" x="0px" y="0px"
	 viewBox="0 0 2076.7 3300" style="enable-background:new 0 0 2076.7 3300;" xml:space="preserve">
<style type="text/css">
	.st0{fill:#FFFFFF;}
</style>
<title>type-all</title>
<g id="레이어_2_1_">
	<g id="Layer_3">
		<path class="st0" d="M834.9,73.4h-8.5V37.5c0-25.1,14.9-37.5,44.8-37.5c1.8,0,10.7,0.7,26.7,2v8.9c-9-1.3-18.1-2.1-27.2-2.1
			c-23.8,0-35.8,9.6-35.8,28.8V73.4z M898.2,122.2c-16,1.2-25.4,2-28.1,2c-12.6,0-22-2-30.6-7.1c-8.3-5.5-13.2-15.7-13.2-30.4v-7.9
			h8.5v8c0,20.6,12.1,28.8,35.6,28.8c7.9-0.1,15.7-0.7,23.5-1.6l4.3-0.5V122.2z"/>
		<path class="st0" d="M1050.4,122.2h-8.5V2h35.9v8.2h-27.4V122.2z M1108,28.3c0-11.2-7.3-18.1-18.5-18.1h-6.6V2h8
			c6.9-0.1,13.6,2.7,18.3,7.8c4.8,5.1,7.4,11.9,7.3,18.9v12.8c0.4,13.8-10.5,25.2-24.2,25.6c-0.5,0-0.9,0-1.4,0h-35.4V59h34
			c11.2,0,18.5-6.9,18.5-18.1L1108,28.3z M1098.8,70.6l26.3,51.6h-9.6L1089,70.6H1098.8z"/>
		<path class="st0" d="M0,325.8V205.5h4.4l4.1,8.2v103.7H69v8.4H0z M14.1,213.8l-4.1-8.2h57.6v8.2H14.1z M13.7,269.8v-8h45.5v8H13.7
			z"/>
		<path class="st0" d="M1430.2,325.8h-8.9l41.4-120.2h0.5l4.3,12.3L1430.2,325.8z M1497,288.4h-48.7l2.8-8.4h42.9l-25.6-74.5h8.9
			l41.4,120.2h-8.9L1497,288.4z"/>
		<path class="st0" d="M1600.4,205.5h44.8v120.2h-8.5v-112h-36.3V205.5z M1650.4,213.7v-8.2h31.1v8.2H1650.4z"/>
		<path class="st0" d="M2068.1,325.8V205.5h8.5v120.2L2068.1,325.8L2068.1,325.8z"/>
		<path class="st0" d="M1583.3,517.6h-8.9l-42.5-120.2h9.4L1583.3,517.6z M1621,397.4h9.4l-42.5,120.2l-4.4-13L1621,397.4z"/>
		<path class="st0" d="M1806,517.6V397.4h4.4l4.1,8.2v103.7h60.5v8.4L1806,517.6z M1820,405.6l-4.1-8.2h57.6v8.2H1820z
			 M1819.7,461.6v-8h45.5v8H1819.7z"/>
		<path class="st0" d="M443.9,733.4V613.2h8.5v120.2H443.9z M457.5,643.4v-19.9l37.7,80.7h-9.4L457.5,643.4z M494.4,690.7l31.5-67.2
			v19.9l-26.7,57.3L494.4,690.7z M531,613.2h8.5v120.2H531V613.2z"/>
		<path class="st0" d="M775.3,733.4V613.2h8.5v120.2H775.3z"/>
		<path class="st0" d="M1329.8,733.4V613.2h8.5v120.2H1329.8z M1407.3,733.4l-63.8-96.9v-15.1l74,112H1407.3z M1417.4,724l-8.5-13
			v-97.8h8.5V724z"/>
		<path class="st0" d="M140.7,1029.6h-8.5v-8.2c0-10.1-3.2-17.6-9.4-22s-14.1-6.8-23.1-6.8s-16.9,2.3-23.1,6.8s-9.4,11.9-9.4,22
			v36.3h-8.5v-35.9c0-25.1,13.7-37.5,41.1-37.5s41.1,12.5,41.1,37.5v7.8H140.7z M132.2,1034.9h8.5v35.9c0,25.1-13.7,37.5-41.1,37.5
			s-41.1-12.4-41.1-37.5v-7.8H67v8.5c0,10.1,3.2,17.4,9.4,21.9s14,6.6,23.1,6.6s16.9-2.1,23.1-6.6c6.2-4.5,9.4-11.7,9.4-21.9v-36.6
			H132.2z"/>
		<path class="st0" d="M1263.6,1370.2h-8.5V1250h36v8.2h-27.4L1263.6,1370.2z M1321.2,1276.3c0-11.2-7.3-18.1-18.5-18.1h-6.6v-8.2h8
			c6.9-0.1,13.6,2.7,18.3,7.8c4.8,5.1,7.4,11.9,7.3,18.8v12.8c0.4,13.8-10.5,25.2-24.2,25.6c-0.5,0-0.9,0-1.4,0h-35.4v-8h34
			c11.2,0,18.5-6.9,18.5-18.1L1321.2,1276.3z M1312,1318.6l26.3,51.6h-9.6l-26.5-51.6H1312z"/>
		<path class="st0" d="M1840.5,1370.2V1250h8.5v120.2H1840.5z"/>
		<path class="st0" d="M1021.8,2029.5h44.8v120.2h-8.6v-112h-36.3L1021.8,2029.5z M1071.8,2037.7v-8.2h31.1v8.2H1071.8z"/>
		<path class="st0" d="M450.1,2856.7v47.7h-8.5v-46.1l-42.1-74.2h9.8L450.1,2856.7z M453.6,2852.1l-4.8-8.4l33.6-59.6h9.8
			L453.6,2852.1z"/>
	</g>
</g>
</svg>
